<?xml version="1.0" encoding="UTF-8" standalone="no"?>
<svg
   width="1200"
   height="220"
   viewBox="0 0 1200 220"
   role="img"
   aria-label="Off-Switch Method logo"
   version="1.1"
   id="svg2"
   xmlns="http://www.w3.org/2000/svg"
   xmlns:svg="http://www.w3.org/2000/svg">
  <defs
     id="defs2" />
  <style
     id="style1"><![CDATA[
    .wordmark { font-family: Manrope, 'Manrope SemiBold', Inter, Arial, sans-serif; font-weight: 600; letter-spacing: -0.8px; }
    .label { font-family: Inter, Arial, sans-serif; font-weight: 600; letter-spacing: 2px; }
    .small { font-family: Inter, Arial, sans-serif; font-weight: 400; }
  ]]></style>
  <g
     id="g2">
    <rect
       x="80"
       y="70"
       width="205"
       height="80"
       rx="40.0"
       ry="40.0"
       fill="#0B1F33"
       id="rect2" />
    <circle
       cx="120.0"
       cy="110.0"
       r="26.400000000000002"
       fill="#FFFFFF"
       id="circle2" />
  </g>
  <path
     d="m 357.31641,128.56641 c 11.04492,0 19.34277,-8.01465 19.34277,-21.63672 0,-13.650393 -8.29785,-21.693362 -19.34277,-21.693362 -11.07325,0 -19.39942,8.042969 -19.39942,21.693362 0,13.59375 8.32617,21.63672 19.39942,21.63672 z m 0,-6.76856 c -6.91016,0 -11.80957,-5.26758 -11.80957,-14.86816 0,-9.657229 4.89941,-14.924807 11.80957,-14.924807 6.85351,0 11.72461,5.239258 11.72461,14.924807 0,9.6289 -4.8711,14.86816 -11.72461,14.86816 z m 42.02031,-25.459959 h -6.85352 v -2.463868 c 0,-2.492187 1.07618,-3.908203 3.85157,-3.908203 1.21777,0 2.18066,0.254883 2.80371,0.453125 l 1.50097,-5.720703 c -0.96289,-0.339844 -3.05859,-0.87793 -5.66406,-0.87793 -5.4375,0 -9.82715,3.171875 -9.82715,9.487305 v 3.030274 h -5.80566 v 5.777339 h 5.80566 V 128 h 7.33496 v -25.88477 h 6.85352 z m 19.36406,0 h -6.85351 v -2.463868 c 0,-2.492187 1.07617,-3.908203 3.85156,-3.908203 1.21777,0 2.18066,0.254883 2.80371,0.453125 l 1.50098,-5.720703 c -0.96289,-0.339844 -3.0586,-0.87793 -5.66407,-0.87793 -5.4375,0 -9.82714,3.171875 -9.82714,9.487305 v 3.030274 h -5.80567 v 5.777339 h 5.80567 V 128 h 7.33496 v -25.88477 h 6.85351 z m 22.79082,11.044919 h -18.97461 v 6.08887 h 18.97461 z m 22.28106,21.26856 c 10.08203,0 15.97266,-5.06934 15.97266,-12.48926 0,-7.36328 -6.14551,-10.62012 -12.4043,-12.12109 l -3.93652,-1.01954 c -3.42676,-0.8496 -7.19336,-2.26562 -7.19336,-5.80566 0,-3.200195 2.88867,-5.550781 7.64648,-5.550781 4.55957,0 7.61816,2.095703 7.98633,5.692383 h 7.33496 c -0.19824,-7.051758 -6.20215,-12.121094 -15.20801,-12.121094 -8.83594,0 -15.40625,4.984375 -15.40625,12.432617 0,5.947265 4.16309,9.515625 11.21485,11.328125 l 4.78613,1.24609 c 4.55957,1.18946 7.61816,2.57715 7.61816,5.86231 0,3.625 -3.4834,6.08887 -8.46777,6.08887 -4.75781,0 -8.52442,-2.15235 -8.86426,-6.59864 h -7.44824 c 0.33984,8.32618 6.54199,13.05567 16.36914,13.05567 z M 492.3125,128 h 7.44824 l 3.70996,-12.91406 c 0.84961,-2.97364 1.6709,-6.74024 2.49219,-10.28028 0.82129,3.54004 1.61426,7.27832 2.49219,10.28028 L 512.16504,128 h 7.44824 l 9.45899,-31.662109 h -7.81641 l -3.11524,12.404299 c -0.8496,3.54004 -1.8125,7.56152 -2.69042,12.29101 -0.93458,-4.75781 -1.95411,-8.77929 -2.80372,-12.29101 l -3.11523,-12.404299 h -7.02344 l -3.20019,12.404299 c -0.90625,3.56836 -1.89746,7.58984 -2.83203,12.29101 -0.90625,-4.81445 -1.89747,-8.83593 -2.71875,-12.29101 L 490.6416,96.337891 h -7.75976 z m 41.11406,0 h 7.36328 V 96.337891 h -7.36328 z m 3.68164,-36.136719 c 2.35059,0 4.30469,-1.8125 4.30469,-4.049804 0,-2.237305 -1.9541,-4.021485 -4.30469,-4.021485 -2.35059,0 -4.27637,1.78418 -4.27637,4.021485 0,2.237304 1.92578,4.049804 4.27637,4.049804 z m 25.33965,4.47461 h -6.11719 v -7.533204 h -7.36328 v 7.533204 h -4.50293 v 5.777339 h 4.50293 v 17.58692 c 0,5.60742 3.37011,8.72265 9.43066,8.72265 1.55762,0 3.31348,-0.19824 4.92774,-0.67968 l -1.16114,-5.69239 c -0.70801,0.16993 -2.01074,0.36817 -2.69043,0.36817 -2.2373,0 -3.14355,-1.04785 -3.14355,-3.3418 v -16.96387 h 6.11719 z m 18.20294,32.313479 c 7.1084,0 12.37597,-3.85157 13.73535,-10.16699 l -6.88184,-1.44434 c -0.76465,3.42676 -3.17187,5.63574 -6.79687,5.63574 -5.12598,0 -7.67481,-4.50293 -7.67481,-10.36523 0,-5.91895 2.54883,-10.39356 7.67481,-10.39356 3.56836,0 5.91894,2.12403 6.71191,5.40918 l 6.88184,-1.44433 c -1.35938,-6.173832 -6.59863,-9.940434 -13.65039,-9.940434 -9.23242,0 -15.12305,6.541994 -15.12305,16.397464 0,9.74218 5.89063,16.3125 15.12305,16.3125 z m 26.61404,-19.20117 c 0,-4.5879 2.83203,-7.25 6.76856,-7.25 3.85156,0 6.17382,2.54882 6.17382,6.79687 V 128 h 7.39161 v -20.13574 c 0,-7.61817 -4.33301,-11.922854 -10.84668,-11.922854 -4.50293,0 -7.70313,2.095703 -9.60059,6.258794 V 85.802734 h -7.25 V 128 h 7.36328 z M 648.76837,128 h 7.41992 v -21.29687 c 0,-3.2002 -0.16992,-9.034185 -0.2832,-13.820318 1.55762,5.4375 3.25684,11.073238 4.24805,13.820318 L 668.0545,128 h 6.42872 l 7.78808,-21.29687 c 0.99121,-2.83204 2.77539,-8.6377 4.21973,-14.04688 -0.085,5.012695 -0.25488,10.90332 -0.25488,14.04688 V 128 h 7.5332 V 85.802734 h -11.41309 l -7.92969,21.778316 c -0.82128,2.52051 -2.12402,7.73145 -3.11523,11.89454 -0.96289,-4.21973 -2.29394,-9.40235 -3.14355,-11.89454 l -8.01465,-21.778316 h -11.38477 z m 66.34744,0.65137 c 7.05176,0 11.9795,-3.37012 13.50879,-8.4961 l -6.76855,-1.38769 c -0.99121,2.69043 -3.42676,4.10644 -6.65527,4.10644 -4.7295,0 -7.92969,-3.00195 -8.12793,-8.63769 h 22.0332 v -2.32227 c 0,-11.10156 -6.74024,-15.972654 -14.47168,-15.972654 -9.0625,0 -14.89649,6.683594 -14.89649,16.425784 0,9.91211 5.83399,16.28418 15.37793,16.28418 z m -8.01464,-19.42774 c 0.33984,-4.21972 3.05859,-7.50488 7.56152,-7.50488 4.38965,0 6.85351,2.97363 7.27832,7.50488 z m 42.16192,-12.885739 h -6.11719 v -7.533204 h -7.36328 v 7.533204 h -4.50293 v 5.777339 h 4.50293 v 17.58692 c 0,5.60742 3.37012,8.72265 9.43067,8.72265 1.55761,0 3.31347,-0.19824 4.92773,-0.67968 l -1.16113,-5.69239 c -0.70801,0.16993 -2.01074,0.36817 -2.69043,0.36817 -2.23731,0 -3.14356,-1.04785 -3.14356,-3.3418 v -16.96387 h 6.11719 z m 12.51053,13.112309 c 0,-4.5879 2.83203,-7.25 6.76856,-7.25 3.85156,0 6.17382,2.54882 6.17382,6.79687 V 128 h 7.3916 v -20.13574 c 0,-7.61817 -4.333,-11.922854 -10.84667,-11.922854 -4.50293,0 -7.70313,2.095703 -9.60059,6.258794 V 85.802734 h -7.25 V 128 h 7.36328 z m 41.08575,19.20117 c 9.23243,0 15.15137,-6.57032 15.15137,-16.3125 0,-9.85547 -5.91894,-16.397464 -15.15137,-16.397464 -9.23242,0 -15.12304,6.541994 -15.12304,16.397464 0,9.74218 5.89062,16.3125 15.12304,16.3125 z m 0,-5.97559 c -5.12597,0 -7.61816,-4.58789 -7.61816,-10.36523 0,-5.83399 2.49219,-10.39356 7.61816,-10.39356 5.1543,0 7.67481,4.55957 7.67481,10.39356 0,5.77734 -2.52051,10.36523 -7.67481,10.36523 z m 32.44806,5.89063 c 5.46582,0 7.90137,-3.28516 9.0625,-5.57911 h 0.45313 V 128 h 7.22168 V 85.802734 h -7.36328 v 15.774416 h -0.31153 c -1.13281,-2.237306 -3.45507,-5.635744 -9.09082,-5.635744 -7.30664,0 -13.02734,5.749024 -13.02734,16.284184 0,10.39355 5.55078,16.34082 13.05566,16.34082 z m 2.01075,-6.06055 c -4.92774,0 -7.53321,-4.36133 -7.53321,-10.30859 0,-5.89063 2.54883,-10.19532 7.53321,-10.19532 4.84277,0 7.50488,4.02149 7.50488,10.19532 0,6.17382 -2.71875,10.30859 -7.50488,10.30859 z"
     id="text2"
     class="wordmark"
     style="font-weight:600;font-size:58px;font-family:Manrope, 'Manrope SemiBold', Inter, Arial, sans-serif;letter-spacing:-0.8px;fill:#0b1f33"
     aria-label="Off-Switch Method" />
</svg>
